<?xml version="1.0" standalone="no"?>
<!DOCTYPE svg PUBLIC "-//W3C//DTD SVG 20010904//EN"
 "http://www.w3.org/TR/2001/REC-SVG-20010904/DTD/svg10.dtd">
<svg version="1.0" xmlns="http://www.w3.org/2000/svg"
 width="1000.000000pt" height="1000.000000pt" viewBox="0 0 1000.000000 1000.000000"
 preserveAspectRatio="xMidYMid meet">

<g transform="translate(0.000000,1000.000000) scale(0.100000,-0.100000)"
fill="#000000" stroke="none">
<path d="M8970 6615 c-97 -44 -147 -162 -109 -262 51 -136 271 -174 380 -64
87 87 73 233 -30 306 -38 27 -52 30 -124 33 -58 1 -92 -2 -117 -13z"/>
<path d="M3993 6005 c-281 -72 -494 -284 -570 -565 -28 -102 -25 -340 5 -444
64 -222 211 -398 417 -496 132 -64 188 -75 370 -75 155 1 163 2 255 33 311
108 504 349 541 679 38 344 -135 668 -434 813 -173 83 -394 104 -584 55z m353
-340 c215 -63 323 -303 262 -580 -27 -123 -108 -227 -218 -279 -54 -25 -80
-31 -156 -34 -226 -10 -378 104 -429 320 -41 172 -1 357 100 466 109 118 273
157 441 107z"/>
<path d="M1710 5219 l0 -791 373 5 c397 5 432 9 572 62 225 84 387 266 449
505 23 87 31 266 17 359 -53 342 -287 575 -638 636 -65 11 -170 15 -429 15
l-344 0 0 -791z m717 447 c201 -54 312 -211 313 -443 0 -131 -35 -239 -106
-321 -79 -92 -186 -131 -391 -139 l-143 -6 0 461 0 462 138 0 c84 0 157 -6
189 -14z"/>
<path d="M5350 5221 l0 -791 190 0 190 0 0 301 0 300 51 -3 51 -3 163 -295
163 -295 217 -3 217 -2 -20 32 c-140 231 -342 592 -336 597 5 4 30 16 57 25
193 71 312 291 277 511 -29 184 -148 319 -338 383 l-77 27 -402 3 -403 3 0
-790z m740 447 c53 -27 85 -71 94 -128 14 -88 -21 -173 -88 -211 -37 -22 -55
-24 -198 -27 l-158 -4 0 196 0 196 153 0 c139 0 157 -2 197 -22z"/>
<path d="M6930 5220 l0 -790 190 0 190 0 0 459 c0 253 4 462 8 465 5 3 87
-204 183 -460 l174 -464 154 2 154 3 166 445 c92 245 172 454 178 465 10 16
12 -81 13 -447 l0 -468 190 0 190 0 0 790 0 790 -224 0 -224 0 -110 -272 c-61
-150 -158 -393 -217 -540 -59 -148 -111 -268 -115 -268 -4 0 -96 219 -205 488
-109 268 -207 511 -219 539 l-21 53 -227 0 -228 0 0 -790z"/>
<path d="M930 5060 l0 -630 190 0 190 0 0 630 0 630 -190 0 -190 0 0 -630z"/>
</g>
</svg>
