<?xml version="1.0" standalone="no"?>
<!DOCTYPE svg PUBLIC "-//W3C//DTD SVG 20010904//EN"
 "http://www.w3.org/TR/2001/REC-SVG-20010904/DTD/svg10.dtd">
<svg version="1.0" xmlns="http://www.w3.org/2000/svg"
 width="276.000000pt" height="274.000000pt" viewBox="0 0 276.000000 274.000000"
 preserveAspectRatio="xMidYMid meet">

<g transform="translate(0.000000,274.000000) scale(0.100000,-0.100000)"
fill="#000000" stroke="none">
<path d="M580 2324 c-185 -15 -300 -78 -353 -194 -42 -91 -47 -173 -47 -764 0
-529 5 -648 30 -711 42 -105 81 -151 163 -190 101 -49 121 -50 1072 -50 888 0
890 0 968 23 132 37 208 112 243 240 18 62 19 115 19 697 0 486 -3 640 -13
675 -31 108 -91 188 -167 224 -103 49 -93 49 -1010 51 -473 1 -880 1 -905 -1z
m1742 -137 c139 -14 191 -68 212 -219 8 -51 10 -99 7 -106 -7 -13 -196 -111
-721 -374 -318 -159 -325 -162 -390 -163 -65 0 -66 1 -420 179 -195 99 -430
217 -522 263 l-168 84 0 65 c0 81 17 150 48 193 36 49 96 71 204 77 50 2 94 7
97 10 7 7 1578 -2 1653 -9z m-1932 -516 c38 -26 910 -457 949 -470 57 -18 144
-13 214 13 35 13 266 125 514 250 248 124 458 226 467 226 14 0 16 -42 16
-408 0 -592 -11 -650 -130 -706 -45 -21 -53 -21 -950 -24 -649 -2 -924 0 -974
9 -61 10 -74 16 -111 54 -24 23 -46 56 -50 76 -5 19 -10 254 -12 522 l-3 488
22 -7 c13 -3 34 -14 48 -23z"/>
</g>
</svg>
