<?xml version="1.0" standalone="no"?>
<!DOCTYPE svg PUBLIC "-//W3C//DTD SVG 20010904//EN"
 "http://www.w3.org/TR/2001/REC-SVG-20010904/DTD/svg10.dtd">
<svg version="1.0" xmlns="http://www.w3.org/2000/svg"
 width="276.000000pt" height="274.000000pt" viewBox="0 0 276.000000 274.000000"
 preserveAspectRatio="xMidYMid meet">

<g transform="translate(0.000000,274.000000) scale(0.100000,-0.100000)"
fill="#000000" stroke="none">
<path d="M723 2401 c-23 -9 -56 -29 -73 -44 -54 -49 -64 -86 -70 -252 l-5
-150 -90 -7 c-108 -9 -138 -20 -188 -67 -76 -72 -72 -29 -72 -761 0 -725 -4
-679 65 -749 71 -70 6 -66 995 -66 849 0 892 1 925 19 56 30 89 66 110 123 19
50 20 78 20 440 0 264 -4 398 -12 424 -15 53 -68 112 -123 138 -35 16 -64 21
-130 21 l-85 0 0 249 c0 197 -3 257 -15 292 -12 34 -53 81 -183 212 -92 93
-182 175 -201 183 -27 11 -106 14 -430 13 -342 -1 -402 -3 -438 -18z m687
-276 c5 -183 7 -192 44 -234 36 -40 65 -46 246 -51 l175 -5 0 -180 0 -180
-293 -3 c-253 -2 -295 0 -316 14 -16 9 -58 81 -113 192 -131 262 -132 263
-330 270 -73 2 -133 8 -133 13 -1 5 -1 56 -1 114 0 58 0 119 1 136 0 23 10 41
36 65 l36 34 321 -2 322 -3 5 -180z m312 27 c106 -107 158 -166 158 -180 0
-22 -2 -22 -169 -22 -215 0 -201 -14 -201 202 l0 158 27 0 c22 0 58 -31 185
-158z m-778 -333 c16 -13 62 -91 116 -198 48 -97 101 -188 117 -203 55 -52 56
-52 536 -56 l447 -3 35 -35 35 -35 0 -399 0 -400 -34 -38 -34 -37 -881 0 -881
0 -32 33 -33 32 -3 633 -3 633 23 34 c36 53 66 58 329 59 226 1 237 0 263 -20z"/>
</g>
</svg>
