<svg width="23" height="20" viewBox="0 0 23 20" fill="none" xmlns="http://www.w3.org/2000/svg">
<path d="M18.4832 0.183058C18.2024 -0.0610194 17.7471 -0.0610194 17.4664 0.183058L15.0988 2.24112L20.4295 6.87501L22.7971 4.81694C23.0779 4.57286 23.0779 4.17714 22.7971 3.93306L18.4832 0.183058Z" fill="black"/>
<path d="M19.4127 7.75889L14.082 3.12501L4.73513 11.25H5.03293C5.43001 11.25 5.75192 11.5298 5.75192 11.875V12.5H6.47091C6.86799 12.5 7.18989 12.7798 7.18989 13.125V13.75H7.90888C8.30597 13.75 8.62787 14.0298 8.62787 14.375V15H9.34686C9.74395 15 10.0659 15.2798 10.0659 15.625V15.8839L19.4127 7.75889Z" fill="black"/>
<path d="M8.67339 17.0943C8.64397 17.0261 8.62787 16.9522 8.62787 16.875V16.25H7.90888C7.5118 16.25 7.18989 15.9702 7.18989 15.625V15H6.47091C6.07382 15 5.75192 14.7202 5.75192 14.375V13.75H5.03293C4.63584 13.75 4.31394 13.4702 4.31394 13.125V12.5H3.59495C3.50618 12.5 3.42116 12.486 3.34266 12.4604L3.08657 12.6831C3.01772 12.7429 2.96357 12.8143 2.9274 12.8929L0.0514455 19.1429C-0.0553725 19.375 0.00723287 19.6402 0.210608 19.8169C0.413983 19.9937 0.718992 20.0482 0.986036 19.9553L8.17593 17.4553C8.26634 17.4239 8.34846 17.3768 8.41731 17.3169L8.67339 17.0943Z" fill="black"/>
</svg>
