<?xml version="1.0" standalone="no"?>
<!DOCTYPE svg PUBLIC "-//W3C//DTD SVG 20010904//EN"
 "http://www.w3.org/TR/2001/REC-SVG-20010904/DTD/svg10.dtd">
<svg version="1.0" xmlns="http://www.w3.org/2000/svg"
 width="276.000000pt" height="274.000000pt" viewBox="0 0 276.000000 274.000000"
 preserveAspectRatio="xMidYMid meet">

<g transform="translate(0.000000,274.000000) scale(0.100000,-0.100000)"
fill="#000000" stroke="none">
<path d="M500 2415 c-106 -17 -167 -43 -223 -94 -54 -50 -91 -124 -108 -221
-20 -109 -20 -1371 0 -1480 30 -166 114 -266 259 -307 44 -12 119 -17 329 -20
l272 -5 12 25 c16 35 -3 65 -44 71 -17 3 -138 7 -267 9 -265 5 -309 13 -377
71 -26 23 -49 56 -64 93 l-24 58 0 745 c0 689 1 748 18 789 42 107 113 153
262 170 135 16 819 14 930 -3 145 -21 199 -59 237 -162 20 -54 22 -82 25 -354
2 -162 6 -310 9 -328 6 -40 40 -60 73 -43 21 12 21 16 21 316 0 330 -7 393
-56 491 -51 104 -134 156 -287 179 -138 20 -866 20 -997 0z"/>
<path d="M614 1943 c-15 -57 -10 -58 267 -61 247 -2 254 -2 271 18 14 17 15
26 6 46 l-11 24 -263 0 -264 0 -6 -27z"/>
<path d="M622 1508 c-17 -17 -15 -54 4 -72 13 -14 61 -16 373 -16 334 0 359 1
374 18 20 22 21 41 3 65 -12 16 -42 17 -378 17 -270 0 -367 -3 -376 -12z"/>
<path d="M625 1050 c-15 -16 -17 -26 -9 -48 l9 -27 185 -3 c102 -1 195 0 207
3 30 7 38 40 19 70 l-16 25 -189 0 c-176 0 -189 -1 -206 -20z"/>
<path d="M1531 1055 c-95 -27 -180 -103 -218 -195 -28 -69 -24 -200 7 -265 69
-144 233 -222 388 -183 26 6 59 19 74 30 14 10 30 18 34 18 4 0 47 -38 95 -85
52 -51 95 -85 107 -85 25 0 52 25 52 48 0 10 -38 55 -85 102 -47 47 -85 89
-85 94 0 5 12 34 27 65 22 46 27 70 27 137 0 68 -4 90 -27 136 -73 150 -239
226 -396 183z m157 -98 c55 -17 105 -56 139 -110 22 -34 27 -55 27 -107 1 -77
-17 -120 -71 -170 -52 -48 -76 -60 -131 -67 -219 -25 -346 235 -191 394 61 63
143 85 227 60z"/>
</g>
</svg>
