<?xml version="1.0" standalone="no"?>
<!DOCTYPE svg PUBLIC "-//W3C//DTD SVG 20010904//EN"
 "http://www.w3.org/TR/2001/REC-SVG-20010904/DTD/svg10.dtd">
<svg version="1.0" xmlns="http://www.w3.org/2000/svg"
 width="276.000000pt" height="274.000000pt" viewBox="0 0 276.000000 274.000000"
 preserveAspectRatio="xMidYMid meet">

<g transform="translate(0.000000,274.000000) scale(0.100000,-0.100000)"
fill="#000000" stroke="none">
<path d="M1215 2370 c-22 -5 -54 -11 -71 -14 -162 -30 -354 -136 -497 -274
-259 -252 -359 -646 -256 -1006 11 -40 50 -134 71 -170 5 -11 22 -40 35 -65
34 -60 83 -121 166 -203 263 -262 660 -354 1019 -237 85 28 211 92 278 142 79
58 202 185 241 248 19 30 40 64 46 75 108 169 156 440 119 664 -25 146 -90
308 -169 419 -40 57 -190 206 -248 247 -91 65 -223 124 -354 159 -69 19 -319
29 -380 15z m295 -96 c19 -3 47 -7 62 -9 35 -6 151 -45 163 -56 5 -5 15 -9 22
-9 31 0 174 -102 254 -182 124 -123 187 -228 241 -398 21 -67 23 -94 23 -255
0 -160 -3 -188 -23 -255 -85 -275 -279 -488 -543 -598 -209 -86 -456 -88 -679
-5 -99 37 -255 140 -326 215 -176 185 -282 474 -259 706 7 69 39 222 54 257
35 83 49 110 97 183 91 139 234 266 375 332 155 72 362 101 539 74z"/>
<path d="M1327 1734 c-4 -4 -7 -76 -7 -160 l0 -154 -162 -2 -163 -3 0 -45 0
-45 160 -5 160 -5 5 -160 5 -160 43 0 43 0 2 160 2 160 160 5 c88 3 159 8 158
13 -2 4 -3 25 -3 47 l0 39 -157 3 -158 3 -5 155 -5 155 -35 3 c-20 2 -39 0
-43 -4z"/>
</g>
</svg>
