<svg width="18" height="21" viewBox="0 0 18 21" fill="none" xmlns="http://www.w3.org/2000/svg">
<path d="M2.125 1.39609C1.43464 1.39609 0.875 2.01535 0.875 2.77924V4.1624C0.875 4.92629 1.43464 5.54555 2.125 5.54555H2.75V17.9939C2.75 19.5217 3.86929 20.7602 5.25 20.7602H12.75C14.1307 20.7602 15.25 19.5217 15.25 17.9939V5.54555H15.875C16.5654 5.54555 17.125 4.92629 17.125 4.1624V2.77924C17.125 2.01535 16.5654 1.39609 15.875 1.39609H11.5C11.5 0.632198 10.9404 0.0129395 10.25 0.0129395H7.75C7.05964 0.0129395 6.5 0.632198 6.5 1.39609H2.125ZM5.875 6.9287C6.22018 6.9287 6.5 7.23833 6.5 7.62028V17.3023C6.5 17.6843 6.22018 17.9939 5.875 17.9939C5.52982 17.9939 5.25 17.6843 5.25 17.3023L5.25 7.62028C5.25 7.23833 5.52982 6.9287 5.875 6.9287ZM9 6.9287C9.34518 6.9287 9.625 7.23833 9.625 7.62028V17.3023C9.625 17.6843 9.34518 17.9939 9 17.9939C8.65482 17.9939 8.375 17.6843 8.375 17.3023V7.62028C8.375 7.23833 8.65482 6.9287 9 6.9287ZM12.75 7.62028V17.3023C12.75 17.6843 12.4702 17.9939 12.125 17.9939C11.7798 17.9939 11.5 17.6843 11.5 17.3023V7.62028C11.5 7.23833 11.7798 6.9287 12.125 6.9287C12.4702 6.9287 12.75 7.23833 12.75 7.62028Z" fill="black"/>
</svg>
